# xmcd
#
# Track frame offsets: 
#        150
#        14863
#        27125
#        40201
#        54868
#        67952
#        79154
#        89960
#        101570
#        117522
#        135908
#        147029
#        158295
#        173206
#
# Disc length: 2559 seconds
#
# Revision: 0
# Processed by: cddbd v1.5.2PL0 Copyright (c) Steve Scherf et al.
# Submitted via: ExactAudioCopy v0.99pb4
#
DISCID=b209fd0e
DTITLE=The Cana Ramblers - These Are The Cana Ramblers
DYEAR=2004
DGENRE=Bluegrass
TTITLE0=Working On A Building
TTITLE1=Castle On The Hill
TTITLE2=John 2
TTITLE3=White Dove
TTITLE4=Tennessee Mountain Home
TTITLE5=Ain't Nobody Gonna Miss Me
TTITLE6=Low And Lonely
TTITLE7=Ruff Dog
TTITLE8=Come And Sit By The River
TTITLE9=Just Any Day Now
TTITLE10=Little Maggie
TTITLE11=The Guide
TTITLE12=Keep Me From Blowing Away
TTITLE13=In My Mind
EXTD=
EXTT0=
EXTT1=
EXTT2=
EXTT3=
EXTT4=
EXTT5=
EXTT6=
EXTT7=
EXTT8=
EXTT9=
EXTT10=
EXTT11=
EXTT12=
EXTT13=
PLAYORDER=
